PathFileType	4	(X/Y/Z)	SUBJ82_0_static_RCNL2025.trc
DataRate	CameraRate	NumFrames	NumMarkers	Units	OrigDataRate	OrigDataStartFrame	OrigNumFrames
100	100	5	25	mm	100	55	82
Frame#	Time	R_Shoulder			L_Shoulder			C7			J_Notch			R_Elbow			L_Elbow			R_Wrist			L_Wrist			R_Asis			L_Asis			Sacral			Thoracic			Sternum			R_Thigh_Lateral			R_Knee_Lateral			R_Shank_Lateral			R_Ankle_Lateral			R_Heel			R_Toe			L_Thigh_Lateral			L_Knee_Lateral			L_Shank_Lateral			L_Ankle_Lateral			L_Heel			L_Toe		
		X1	Y1	Z1	X2	Y2	Z2	X3	Y3	Z3	X4	Y4	Z4	X5	Y5	Z5	X6	Y6	Z6	X7	Y7	Z7	X8	Y8	Z8	X9	Y9	Z9	X10	Y10	Z10	X11	Y11	Z11	X12	Y12	Z12	X13	Y13	Z13	X14	Y14	Z14	X15	Y15	Z15	X16	Y16	Z16	X17	Y17	Z17	X18	Y18	Z18	X19	Y19	Z19	X20	Y20	Z20	X21	Y21	Z21	X22	Y22	Z22	X23	Y23	Z23	X24	Y24	Z24	X25	Y25	Z25
55	0.54000000	-276.036194	1454.783447	-3.177179	-251.155365	1471.919678	-392.983643	-318.039581	1526.831421	-195.214142	-185.953201	1421.991211	-194.584793	-304.114044	1187.294189	188.605789	-269.371124	1202.557495	-596.287109	-229.250412	971.133667	314.361710	-205.202225	982.230255	-713.524689	-184.690887	999.691467	-57.189720	-174.842178	1006.360718	-327.475830	-360.063171	1029.457764	-208.222794	-390.406891	1290.589355	-212.674683	-154.388245	1241.886841	-197.538864	-286.172882	574.514771	-21.543341	-298.953552	488.813721	-71.538841	-336.744415	265.717377	-11.197732	-340.755554	79.763237	-105.602547	-383.134338	46.745056	-148.216721	-204.001129	51.279690	-124.767380	-310.438507	573.020447	-372.716766	-317.475281	496.940643	-328.598145	-328.918854	265.578552	-365.962341	-334.974335	74.208115	-298.502380	-374.570404	52.520779	-246.400711	-191.873550	46.112411	-269.107880
56	0.55000000	-275.962891	1454.844238	-3.246446	-251.046967	1471.870483	-393.024139	-318.007935	1526.838501	-195.223923	-185.913391	1421.890015	-194.641647	-304.082458	1187.298218	188.599503	-269.288910	1202.558838	-596.290771	-229.229431	971.171967	314.429718	-205.170715	982.215790	-713.662537	-184.563019	999.639709	-57.239803	-174.827255	1006.316833	-327.442291	-360.056213	1029.456909	-208.228104	-390.339142	1290.582886	-212.608200	-154.365768	1241.872192	-197.602783	-286.163269	574.515930	-21.518293	-298.940735	488.803070	-71.554459	-336.735443	265.750031	-11.200615	-340.693787	79.811584	-105.634598	-383.138397	46.785999	-148.203949	-203.999359	51.299736	-124.791656	-310.401886	572.987671	-372.714966	-317.413239	496.968292	-328.692322	-328.896576	265.551636	-366.004333	-334.946472	74.220757	-298.512787	-374.506683	52.441010	-246.453796	-191.885284	46.139439	-269.157257
57	0.56000000	-275.875183	1454.874390	-3.172274	-251.018188	1471.902344	-393.051483	-317.918213	1526.886963	-195.341675	-185.824265	1421.874390	-194.595886	-303.967346	1187.386719	188.611816	-269.298401	1202.610107	-596.260742	-229.161911	971.229462	314.475052	-205.162254	982.222412	-713.676392	-184.497253	999.703735	-57.278816	-174.846039	1006.305481	-327.507477	-360.046661	1029.493164	-208.239944	-390.320374	1290.582275	-212.627243	-154.295334	1241.888794	-197.682312	-286.135712	574.490906	-21.539186	-298.912354	488.793915	-71.576050	-336.719482	265.693481	-11.207415	-340.693817	79.818314	-105.624695	-383.135498	46.642456	-148.223434	-203.976288	51.271080	-124.795242	-310.129425	572.836853	-372.947479	-317.451752	496.895111	-328.654297	-328.906769	265.545319	-366.077515	-334.916046	74.209419	-298.525208	-374.500641	52.431473	-246.457642	-191.879761	46.155247	-269.166534
58	0.57000000	-275.770294	1454.857056	-3.265676	-250.958252	1471.881470	-393.090759	-317.909729	1526.886841	-195.351089	-185.740234	1421.888916	-194.622025	-303.943848	1187.398926	188.605713	-269.175598	1202.562256	-596.303284	-229.137161	971.306183	314.570526	-205.140343	982.218628	-713.668915	-184.484940	999.696045	-57.282188	-174.850708	1006.304565	-327.497894	-360.059662	1029.469971	-208.224823	-390.235107	1290.647339	-212.697754	-154.207733	1241.799438	-197.727188	-286.151733	574.519653	-21.528204	-298.890594	488.752747	-71.565109	-336.718872	265.725769	-11.214586	-340.735291	79.758789	-105.621239	-383.133423	46.667763	-148.209442	-203.994888	51.298458	-124.794731	-310.085663	572.832886	-372.998901	-317.455017	496.886414	-328.629303	-328.880005	265.551727	-366.062164	-334.931335	74.201973	-298.479553	-374.493103	52.439877	-246.469940	-191.945480	46.129005	-269.135986
59	0.58000000	-275.728699	1454.925415	-3.292107	-250.957642	1471.887329	-393.091705	-317.847260	1526.865112	-195.390244	-185.599747	1421.918457	-194.661011	-303.841064	1187.464966	188.646683	-269.161407	1202.578125	-596.311707	-229.091446	971.389709	314.632172	-205.194763	982.258698	-713.741577	-184.563416	999.673340	-57.235561	-174.843140	1006.273865	-327.484711	-359.983398	1029.493896	-208.166000	-390.238983	1290.584595	-212.680939	-154.251770	1241.822510	-197.738663	-286.155518	574.516846	-21.545822	-298.828156	488.745544	-71.617767	-336.644775	265.891144	-11.283665	-340.675018	79.768181	-105.546303	-383.156860	46.694439	-148.180649	-204.016541	51.307716	-124.763527	-310.370636	572.984436	-372.737793	-317.446716	496.906494	-328.648804	-328.953308	265.517456	-365.957886	-334.979462	74.230110	-298.487915	-374.629425	52.559864	-246.353241	-191.950958	46.129852	-269.096741
